<?xml version="1.0" encoding="utf-8"?>
<!-- Generator: Adobe Illustrator 16.0.0, SVG Export Plug-In . SVG Version: 6.00 Build 0)  -->
<!DOCTYPE svg PUBLIC "-//W3C//DTD SVG 1.1//EN" "http://www.w3.org/Graphics/SVG/1.1/DTD/svg11.dtd">
<svg version="1.1" id="Layer_1" xmlns="http://www.w3.org/2000/svg" xmlns:xlink="http://www.w3.org/1999/xlink" x="0px" y="0px"
	 width="240px" height="120px" viewBox="0 0 240 120" enable-background="new 0 0 240 120" xml:space="preserve">
<g>
	<path fill="#FFFFFF" d="M144.44,60.02h2.904h2.393h3.233h3.233h2.526h2.496c1.14,0,1.705-0.528,1.705-1.589v-2.89
		c0-1.021-0.565-1.534-1.705-1.534h-2.496h-2.526h-3.233h-3.233h-2.393h-2.904c-1.138,0-1.706,0.513-1.706,1.534v2.89
		C142.734,59.491,143.303,60.02,144.44,60.02z M144.786,56.547c0-0.518,0.24-0.779,0.725-0.779h1.834h2.393h3.233h3.233h2.526h1.456
		c0.444,0,0.663,0.261,0.663,0.779v0.809c0,0.637-0.219,0.956-0.663,0.956h-1.456h-2.526h-3.233h-3.233h-2.393h-1.834
		c-0.484,0-0.725-0.319-0.725-0.956V56.547z"/>
	<path fill="#FFFFFF" d="M166.195,51.694c-2.695-0.691-4.708-1.367-6.04-2.021c-0.473-0.2-0.946-0.418-1.425-0.657
		c-0.836-0.422-1.681-0.903-2.526-1.448c-0.95-0.609-1.905-1.296-2.867-2.057c-0.126-0.104-0.25-0.186-0.366-0.25
		c-0.187-0.101-0.36-0.155-0.528-0.155c-0.308,0-0.604,0.139-0.896,0.406c-0.599,0.519-1.202,1.009-1.809,1.466
		c-0.79,0.597-1.589,1.142-2.393,1.632c-0.36,0.22-0.723,0.429-1.087,0.629c-1.441,0.79-3.626,1.696-6.557,2.717
		c-0.523,0.114-0.778,0.415-0.778,0.898c0.02,0.729,0.356,1.114,1.01,1.153c0.269,0,0.673-0.114,1.213-0.345
		c1.599-0.522,3.314-1.232,5.144-2.139c0.232-0.114,0.465-0.244,0.691-0.376c0,0.355,0.122,0.596,0.364,0.717
		c0.126,0.062,0.286,0.092,0.473,0.092h1.92h3.233h3.233h1.667c0.506,0,0.775-0.241,0.81-0.719l0.05,0.025
		c1.761,0.872,3.604,1.597,5.527,2.168c0.869,0.231,1.424,0.346,1.678,0.346c0.654-0.041,1.001-0.424,1.041-1.154
		C166.955,52.119,166.693,51.813,166.195,51.694z M156.204,50.31h-3.233h-3.233h-1.336c0.435-0.271,0.881-0.569,1.336-0.895
		c0.651-0.463,1.321-0.985,2.012-1.562c0.249-0.211,0.481-0.32,0.693-0.32c0.111,0,0.286,0.08,0.528,0.233
		c0.132,0.084,0.283,0.189,0.455,0.32c0.909,0.66,1.834,1.268,2.778,1.82c0.237,0.139,0.478,0.271,0.719,0.404H156.204z"/>
	<path fill="#FFFFFF" d="M165.703,69.182h-1.819v-5.78c0-1.16-0.667-1.736-1.993-1.736h-3.16h-2.526h-3.233h-3.233h-2.393h-3.107
		c-1.25,0-1.876,0.576-1.876,1.736v5.78h-1.822c-0.715,0-1.068,0.334-1.068,1.01c0,0.694,0.354,1.04,1.068,1.04h6.806h2.393h3.233
		h3.233h2.526h6.973c0.693,0,1.041-0.346,1.041-1.04C166.744,69.516,166.396,69.182,165.703,69.182z M146.918,69.182h-2.364v-4.858
		c0-0.478,0.202-0.721,0.606-0.721h2.076h0.108h1.399h0.993h0.401l-0.401,0.694l-2.393,4.144L146.918,69.182z M152.971,69.182
		h-2.172h-1.062h-0.399l0.399-0.696l2.82-4.883h0.413h2.362h0.871h0.402l-0.402,0.694l-2.819,4.885H152.971z M161.661,69.182h-1.74
		h-1.19h-1.316h-1.21h-0.401l0.401-0.696l2.526-4.378l0.293-0.505h0.897h1.043c0.465,0,0.697,0.243,0.697,0.721V69.182z"/>
	<path fill="#FFFFFF" d="M105.151,58.056c0.463-1.968,0.691-4.083,0.691-6.357c0-1.291-0.537-1.938-1.617-1.938h-3.437h-0.608
		c0.061-1.06,0.09-2.223,0.09-3.496c0-0.696-0.342-1.042-1.018-1.042c-0.689,0-1.034,0.345-1.034,1.042
		c0,1.273-0.031,2.436-0.09,3.496h-2.021c-0.696,0-1.041,0.346-1.041,1.041c0,0.694,0.345,1.039,1.041,1.039h1.904
		c-0.114,1.021-0.246,1.929-0.404,2.717c-0.267,1.598-0.81,3.324-1.618,5.174c-0.133,0.384-0.202,0.642-0.202,0.778
		c0,0.83,0.261,1.5,0.784,2.023c0.961,0.829,2.041,1.81,3.235,2.95c-1.1,1.478-2.564,2.932-4.395,4.357
		c-0.231,0.251-0.345,0.493-0.345,0.724c0,0.771,0.384,1.154,1.153,1.154c0.232,0,0.512-0.083,0.839-0.256
		c1.405-1.101,2.646-2.328,3.728-3.685c0.207-0.261,0.41-0.527,0.606-0.798c0.635,0.616,1.321,1.272,2.052,1.968
		c0.404,0.385,0.848,0.578,1.331,0.578c0.287-0.041,0.518-0.144,0.69-0.322c0.154-0.173,0.241-0.419,0.262-0.749
		c0-0.577-0.617-1.366-1.849-2.366c-0.325-0.312-0.724-0.666-1.184-1.07c0.04-0.059,0.076-0.129,0.113-0.202
		C103.889,62.773,104.668,60.521,105.151,58.056z M101.049,63.544l-0.261-0.22c-0.688-0.58-1.444-1.229-2.283-1.945
		c-0.445-0.423-0.667-0.715-0.667-0.869c0-0.21,0.07-0.472,0.202-0.778c0.754-2.101,1.282-3.886,1.593-5.347
		c0.153-0.753,0.277-1.602,0.375-2.544h0.779h2.515c0.285,0,0.433,0.223,0.433,0.667c0,1.464-0.182,3.131-0.551,4.994
		C102.725,59.795,102.01,61.81,101.049,63.544z"/>
	<path fill="#FFFFFF" d="M120.635,57.824h-3.901c-0.384-0.73-0.854-1.426-1.416-2.082c-0.345-0.422-0.709-0.829-1.094-1.212
		c1.094-0.637,2.146-1.406,3.147-2.312c1.099-1.001,1.928-1.929,2.484-2.772c0.366-0.541,0.553-1.025,0.553-1.444
		c0-0.754-0.503-1.129-1.504-1.129h-11.094c-0.617,0-0.927,0.301-0.927,0.898c0,0.615,0.31,0.922,0.927,0.922h9.33
		c0.232,0,0.35,0.08,0.35,0.231c0,0.153-0.202,0.464-0.606,0.922c-0.542,0.616-1.168,1.199-1.878,1.736
		c-0.504,0.404-1.242,0.868-2.224,1.387c-0.119,0.078-0.223,0.157-0.321,0.231c-0.231-0.153-0.435-0.231-0.606-0.231
		c-0.809,0.059-1.233,0.443-1.272,1.159c0,0.212,0.148,0.424,0.433,0.637c0.929,0.557,1.766,1.291,2.515,2.193
		c0.211,0.271,0.433,0.558,0.666,0.868h-6.877c-0.692,0-1.042,0.345-1.042,1.039c0,0.696,0.35,1.042,1.042,1.042h7.948
		c0.074,0.152,0.143,0.335,0.203,0.546c0.419,1.353,0.63,2.99,0.63,4.912c0,0.755-0.171,1.436-0.518,2.052
		c-0.365,0.677-0.838,1.158-1.415,1.444c-0.484,0.29-0.992,0.435-1.534,0.435c-0.616,0-2.185-0.509-4.709-1.527
		c-0.671,0.053-1.021,0.486-1.041,1.295c0.02,0.523,0.37,0.898,1.041,1.13c1.809,0.942,3.432,1.414,4.857,1.414
		c1.055,0,1.962-0.23,2.712-0.694c0.868-0.425,1.543-1.134,2.027-2.135c0.596-1.14,0.892-2.273,0.892-3.413
		c0-1.829-0.276-3.649-0.839-5.458h3.063c0.693,0,1.04-0.346,1.04-1.042C121.675,58.169,121.328,57.824,120.635,57.824z"/>
	<path fill="#FFFFFF" d="M208.547,46.849h-3.494h-3.494c-0.967,0-1.453,0.457-1.453,1.368v4.238c0,1.006,0.489,1.507,1.453,1.507
		h3.494h3.494c0.966,0,1.453-0.504,1.453-1.507v-4.238C210,47.309,209.516,46.849,208.547,46.849z M207.946,51.315
		c0,0.472-0.18,0.71-0.54,0.71h-2.354h-2.354c-0.361,0-0.541-0.241-0.541-0.71V49.36c0-0.396,0.182-0.599,0.541-0.599h2.354h2.354
		c0.357,0,0.54,0.2,0.54,0.599V51.315z"/>
	<path fill="#FFFFFF" d="M208.547,64.142h-3.494h-3.494c-0.967,0-1.453,0.457-1.453,1.368v4.122c0,1.006,0.489,1.509,1.453,1.509
		h3.494h3.494c0.966,0,1.453-0.505,1.453-1.509V65.51C210,64.603,209.516,64.142,208.547,64.142z M207.946,68.491
		c0,0.473-0.18,0.711-0.54,0.711h-2.354h-2.354c-0.361,0-0.541-0.24-0.541-0.711v-1.839c0-0.396,0.182-0.597,0.541-0.597h2.354
		h2.354c0.357,0,0.54,0.2,0.54,0.597V68.491z"/>
	<path fill="#FFFFFF" d="M187.587,53.962h3.491h3.494c0.966,0,1.456-0.504,1.456-1.507v-4.238c0-0.908-0.488-1.368-1.456-1.368
		h-3.494h-3.491c-0.97,0-1.454,0.457-1.454,1.368v4.238C186.133,53.461,186.619,53.962,187.587,53.962z M188.187,49.36
		c0-0.396,0.182-0.599,0.54-0.599h2.352h2.354c0.358,0,0.541,0.2,0.541,0.599v1.955c0,0.472-0.18,0.71-0.541,0.71h-2.354h-2.352
		c-0.361,0-0.54-0.241-0.54-0.71V49.36z"/>
	<path fill="#FFFFFF" d="M202.429,62.953c0.374-0.434,0.325-1.089-0.109-1.462l-2.793-2.404l2.793-2.405
		c0.433-0.373,0.478-1.028,0.104-1.458c-0.374-0.432-1.027-0.48-1.457-0.106l-3.027,2.604l-3.028-2.607
		c-0.435-0.373-1.089-0.324-1.463,0.11c-0.373,0.435-0.327,1.09,0.111,1.463l2.791,2.403l-2.794,2.405
		c-0.432,0.374-0.477,1.027-0.106,1.459c0.374,0.432,1.028,0.481,1.461,0.105l3.026-2.604l3.029,2.607
		C201.4,63.437,202.055,63.387,202.429,62.953z"/>
	<path fill="#FFFFFF" d="M194.572,64.142h-3.494h-3.491c-0.97,0-1.454,0.457-1.454,1.368v4.122c0,1.006,0.486,1.509,1.454,1.509
		h3.491h3.494c0.966,0,1.456-0.505,1.456-1.509V65.51C196.028,64.603,195.54,64.142,194.572,64.142z M193.974,68.491
		c0,0.473-0.18,0.711-0.541,0.711h-2.354h-2.352c-0.361,0-0.54-0.24-0.54-0.711v-1.839c0-0.396,0.182-0.597,0.54-0.597h2.352h2.354
		c0.358,0,0.541,0.2,0.541,0.597V68.491z"/>
	<path fill="#FFFFFF" d="M42.569,67.837c-1.326-1.333-3.169-2.162-5.209-2.164h-0.003c-2.025,0.002-3.868,0.826-5.2,2.16
		c-1.333,1.327-2.155,3.166-2.155,5.203H30v0.004v0.005h0.002c0,2.03,0.814,3.869,2.149,5.201c1.338,1.329,3.181,2.155,5.209,2.155
		v0.007h0.008v-0.007c2.033,0,3.875-0.826,5.198-2.153c1.334-1.332,2.16-3.176,2.16-5.208h0.006v-0.007h-0.006
		C44.726,70.999,43.904,69.16,42.569,67.837z M42.926,73.04c-0.004,1.534-0.628,2.92-1.635,3.922
		c-1.001,1.011-2.394,1.631-3.924,1.633v-0.006H37.36v0.006c-1.532,0-2.919-0.622-3.927-1.626c-1-1.009-1.627-2.395-1.627-3.924
		h0.004V73.04v-0.004h-0.004c0-1.529,0.619-2.918,1.627-3.923c1.003-1.004,2.396-1.637,3.924-1.637v0.005h0.003v-0.005
		c1.538,0,2.931,0.626,3.932,1.635c1.006,1.004,1.631,2.393,1.635,3.922h-0.004v0.007H42.926z"/>
	<path fill="#FFFFFF" d="M55.624,54.793c-0.357-0.352-0.929-0.352-1.28,0l-3.929,3.93l-3.925-3.93c-0.355-0.352-0.927-0.352-1.288,0
		c-0.345,0.349-0.345,0.931,0,1.284L49.134,60l-3.933,3.931c-0.345,0.354-0.345,0.929,0,1.28c0.361,0.35,0.933,0.35,1.284,0
		l3.929-3.929l3.929,3.929c0.351,0.35,0.923,0.35,1.28,0c0.361-0.352,0.361-0.927,0-1.28L51.696,60l3.927-3.923
		C55.984,55.724,55.984,55.142,55.624,54.793z"/>
	<path fill="#FFFFFF" d="M42.569,41.76c-1.326-1.332-3.169-2.153-5.209-2.156v-0.006h-0.003v0.006
		c-2.025,0.003-3.868,0.824-5.2,2.152c-1.333,1.331-2.155,3.174-2.155,5.207H30v0.003v0.005h0.002c0,2.032,0.814,3.873,2.149,5.196
		c1.338,1.334,3.181,2.162,5.209,2.163v0.006h0.008V54.33c2.033-0.001,3.875-0.828,5.198-2.155c1.334-1.329,2.16-3.174,2.16-5.208
		h0.006v-0.003h-0.006C44.726,44.93,43.904,43.091,42.569,41.76z M42.926,46.966c-0.004,1.533-0.628,2.927-1.635,3.926
		c-1.001,1.007-2.394,1.63-3.924,1.635v-0.009H37.36v0.009c-1.532,0-2.919-0.627-3.927-1.632c-1-1.002-1.627-2.396-1.627-3.924
		h0.004v-0.005v-0.003h-0.004c0-1.533,0.619-2.917,1.627-3.924c1.003-1.005,2.396-1.626,3.924-1.626v0.004h0.003v-0.004
		c1.538,0,2.931,0.62,3.932,1.622c1.006,1.009,1.631,2.396,1.635,3.929h-0.004v0.003H42.926z"/>
	<path fill="#FFFFFF" d="M68.645,41.76c-1.327-1.332-3.177-2.153-5.206-2.156v-0.006h-0.006v0.006
		c-2.041,0.003-3.873,0.824-5.201,2.152c-1.183,1.18-1.967,2.761-2.131,4.513c-0.023,0.231-0.031,0.466-0.031,0.694h-0.004v0.003
		v0.005h0.004c0,0.236,0.008,0.465,0.031,0.689c0.165,1.758,0.948,3.333,2.125,4.507c1.332,1.334,3.167,2.162,5.207,2.163v0.006
		h0.006h0.006V54.33c2.023-0.001,3.869-0.828,5.193-2.155C69.97,50.846,70.793,49,70.8,46.966h0.001v-0.003H70.8
		C70.793,44.93,69.97,43.091,68.645,41.76z M68.992,46.966c0,1.533-0.625,2.927-1.629,3.926c-1.004,1.007-2.395,1.63-3.917,1.635
		v-0.009h-0.006h-0.006v0.009c-1.534,0-2.923-0.627-3.921-1.632c-1.012-1.002-1.639-2.396-1.639-3.924h0.008v-0.005v-0.003h-0.008
		c0-1.533,0.621-2.917,1.637-3.924c1-1.005,2.389-1.626,3.923-1.626v0.004h0.006v-0.004c1.526,0,2.919,0.62,3.923,1.622
		c1.004,1.009,1.629,2.396,1.629,3.929h-0.008v0.003H68.992z"/>
	<path fill="#FFFFFF" d="M68.645,67.837c-1.327-1.333-3.177-2.162-5.206-2.164h-0.006c-2.041,0.002-3.873,0.826-5.201,2.16
		c-1.183,1.176-1.967,2.757-2.131,4.516c-0.023,0.22-0.031,0.454-0.031,0.688h-0.004v0.004v0.005h0.004
		c0,0.229,0.008,0.463,0.031,0.688c0.165,1.758,0.948,3.333,2.125,4.514c1.332,1.329,3.167,2.155,5.207,2.155v0.007h0.006h0.006
		v-0.007c2.023,0,3.869-0.826,5.193-2.153c1.331-1.332,2.155-3.176,2.161-5.208h0.001v-0.007H70.8
		C70.793,70.999,69.97,69.16,68.645,67.837z M68.992,73.04c0,1.534-0.625,2.92-1.629,3.922c-1.004,1.011-2.395,1.631-3.917,1.633
		v-0.006h-0.006h-0.006v0.006c-1.534,0-2.923-0.622-3.921-1.626c-1.012-1.009-1.639-2.395-1.639-3.924h0.008V73.04v-0.004h-0.008
		c0-1.529,0.621-2.918,1.637-3.923c1-1.004,2.389-1.637,3.923-1.637v0.005h0.006v-0.005c1.526,0,2.919,0.626,3.923,1.635
		c1.004,1.004,1.629,2.393,1.629,3.922h-0.008v0.007H68.992z"/>
</g>
</svg>
